<svg xmlns="http://www.w3.org/2000/svg" width="2048" height="2048" viewBox="0 0 2048 2048" version="1.1"><path d="M 666.500 740.045 C 625.310 744.226, 587.902 762.457, 559.308 792.286 C 536.199 816.393, 521.608 844.562, 514.781 878.245 L 512.500 889.500 512.500 1024.500 L 512.500 1159.500 514.804 1170 C 523.005 1207.375, 539.211 1236.760, 565.380 1261.705 C 577.793 1273.538, 590.856 1282.658, 606.500 1290.414 C 662.206 1318.030, 726.022 1313.967, 777.500 1279.527 C 810.049 1257.752, 832.912 1227.535, 845.035 1190.272 C 853.123 1165.412, 855.687 1136.059, 851.042 1121.500 C 846.852 1108.368, 840.220 1099.112, 829.538 1091.490 C 820.100 1084.755, 811.527 1081.832, 799.494 1081.246 C 781.983 1080.394, 768.474 1085.497, 756.495 1097.488 C 744.947 1109.047, 740.590 1119.460, 739.099 1139.058 C 737.735 1156.995, 733.534 1166.626, 722.078 1178.074 C 714.688 1185.460, 704.579 1191.115, 695.339 1193.033 C 686.965 1194.772, 670.845 1193.826, 663.500 1191.165 C 655.842 1188.390, 645.073 1181.058, 639.939 1175.122 C 634.201 1168.488, 628.427 1156.473, 627.071 1148.348 C 626.247 1143.408, 626.008 1107.648, 626.214 1020 C 626.499 898.833, 626.506 898.485, 628.627 892.952 C 633.847 879.332, 640.575 870.430, 650.772 863.652 C 660.740 857.025, 670.604 853.997, 682.176 854.012 C 698.572 854.033, 710.925 858.958, 721.979 869.882 C 733.497 881.264, 737.729 890.920, 739.099 908.942 C 740.590 928.547, 744.949 938.962, 756.495 950.502 C 768.582 962.585, 781.880 967.611, 799.494 966.754 C 824.128 965.555, 843.377 950.523, 851.042 926.500 C 853.997 917.238, 854.009 898.737, 851.072 881.770 C 838.424 808.716, 780.634 752.101, 707.495 741.110 C 697.039 739.539, 676.692 739.010, 666.500 740.045 M 1128.347 740.037 C 1110.922 743.143, 1094.820 754.975, 1087.130 770.324 C 1081.420 781.721, 1081 785.175, 1081 820.710 L 1081 853 1049.660 853 C 1021.723 853, 1017.481 853.215, 1010.596 854.975 C 999.905 857.710, 991.659 862.361, 983.959 870 C 964.976 888.834, 961.606 918.569, 975.927 940.886 C 980.633 948.221, 991.339 957.796, 998.667 961.225 C 1010.378 966.705, 1012.702 966.975, 1048.250 966.988 L 1081 967 1081 1024 L 1081 1081 1048.250 1081.012 C 1012.370 1081.025, 1009.872 1081.327, 998.231 1087.058 C 990.797 1090.718, 980.516 1099.962, 975.927 1107.114 C 968.105 1119.304, 965.126 1136.455, 968.411 1150.387 C 973.051 1170.065, 988.180 1186.190, 1008 1192.583 C 1012.699 1194.099, 1018.416 1194.416, 1047.250 1194.760 L 1081 1195.162 1081 1226.444 C 1081 1243.650, 1081.447 1260.151, 1081.994 1263.114 C 1082.540 1266.076, 1084.859 1272.325, 1087.147 1277 C 1094.242 1291.500, 1107.458 1302.377, 1123.008 1306.515 C 1130.403 1308.483, 1146.193 1308.424, 1153.068 1306.404 C 1171.364 1301.027, 1185.650 1287.342, 1192.115 1269 C 1194.294 1262.820, 1194.426 1260.840, 1194.794 1228.750 L 1195.181 1195 1251.499 1195 L 1307.817 1195 1308.243 1228.250 C 1308.607 1256.590, 1308.932 1262.312, 1310.447 1267 C 1316.829 1286.745, 1332.006 1301.641, 1350.703 1306.511 C 1357.261 1308.219, 1372.380 1308.437, 1379 1306.919 C 1398.251 1302.505, 1415.433 1285.366, 1420.482 1265.540 C 1421.685 1260.819, 1422 1252.886, 1422 1227.371 L 1422 1195.162 1455.750 1194.772 C 1487.090 1194.409, 1489.964 1194.227, 1496 1192.217 C 1521.420 1183.754, 1537.260 1160.704, 1535.665 1134.500 C 1534.235 1110.984, 1520.158 1092.296, 1497.432 1083.744 C 1491.781 1081.618, 1489.854 1081.497, 1456.750 1081.197 L 1422 1080.882 1422 1024 L 1422 967.118 1456.750 966.803 C 1489.854 966.503, 1491.781 966.382, 1497.432 964.256 C 1514.320 957.901, 1527.453 944.771, 1532.976 928.723 C 1535.971 920.022, 1536.674 906.455, 1534.589 897.613 C 1530.994 882.365, 1519.457 867.099, 1506.314 860.199 C 1494.063 853.767, 1488.421 853, 1453.340 853 L 1422 853 1422 820.052 C 1422 787.634, 1421.960 786.975, 1419.486 779.144 C 1406.837 739.103, 1356.513 726.255, 1326.229 755.336 C 1318.725 762.542, 1314.056 769.900, 1310.898 779.500 C 1308.719 786.126, 1308.576 788.279, 1308.226 819.750 L 1307.856 853 1251.499 853 L 1195.142 853 1194.812 819.250 C 1194.482 785.508, 1194.481 785.498, 1191.796 778.119 C 1185.417 760.594, 1171.801 747.357, 1154.792 742.146 C 1146.747 739.681, 1135.414 738.778, 1128.347 740.037 M 1195 1024 L 1195 1081 1251.500 1081 L 1308 1081 1308 1024 L 1308 967 1251.500 967 L 1195 967 1195 1024" stroke="none" fill="#fbfbfb" fill-rule="evenodd"/><path d="M 1001 140.130 C 975.270 142.745, 944.616 151.583, 922.428 162.784 C 915.787 166.137, 344.527 495.713, 334 502.266 C 315.717 513.646, 293.940 532.744, 279.361 550.184 C 264.394 568.089, 247.609 597.654, 240.009 619.500 C 235.746 631.754, 231.458 649.166, 229.297 663 C 227.593 673.904, 227.500 692.591, 227.500 1023.500 C 227.500 1304.450, 227.753 1374.255, 228.799 1381.500 C 236.006 1431.428, 257.198 1475.578, 290.428 1509.892 C 302.392 1522.246, 314.770 1532.776, 326.967 1540.978 C 339.967 1549.719, 914.691 1881.443, 926.500 1887.021 C 976.918 1910.837, 1033.555 1915.372, 1087.486 1899.912 C 1099.063 1896.593, 1115.910 1890.095, 1125.505 1885.247 C 1136.954 1879.463, 1712.190 1546.924, 1721.033 1540.978 C 1774.234 1505.205, 1809.649 1447.672, 1819.201 1381.500 C 1820.247 1374.255, 1820.500 1304.450, 1820.500 1023.500 C 1820.500 692.591, 1820.407 673.904, 1818.703 663 C 1816.542 649.166, 1812.254 631.754, 1807.991 619.500 C 1800.316 597.439, 1783.706 568.207, 1768.530 550.053 C 1754.058 532.742, 1732.230 513.612, 1714 502.266 C 1703.473 495.713, 1132.213 166.137, 1125.572 162.784 C 1089.148 144.397, 1042.490 135.912, 1001 140.130 M 666.500 740.045 C 625.310 744.226, 587.902 762.457, 559.308 792.286 C 536.199 816.393, 521.608 844.562, 514.781 878.245 L 512.500 889.500 512.500 1024.500 L 512.500 1159.500 514.804 1170 C 523.005 1207.375, 539.211 1236.760, 565.380 1261.705 C 577.793 1273.538, 590.856 1282.658, 606.500 1290.414 C 662.206 1318.030, 726.022 1313.967, 777.500 1279.527 C 810.049 1257.752, 832.912 1227.535, 845.035 1190.272 C 853.123 1165.412, 855.687 1136.059, 851.042 1121.500 C 846.852 1108.368, 840.220 1099.112, 829.538 1091.490 C 820.100 1084.755, 811.527 1081.832, 799.494 1081.246 C 781.983 1080.394, 768.474 1085.497, 756.495 1097.488 C 744.947 1109.047, 740.590 1119.460, 739.099 1139.058 C 737.735 1156.995, 733.534 1166.626, 722.078 1178.074 C 714.688 1185.460, 704.579 1191.115, 695.339 1193.033 C 686.965 1194.772, 670.845 1193.826, 663.500 1191.165 C 655.842 1188.390, 645.073 1181.058, 639.939 1175.122 C 634.201 1168.488, 628.427 1156.473, 627.071 1148.348 C 626.247 1143.408, 626.008 1107.648, 626.214 1020 C 626.499 898.833, 626.506 898.485, 628.627 892.952 C 633.847 879.332, 640.575 870.430, 650.772 863.652 C 660.740 857.025, 670.604 853.997, 682.176 854.012 C 698.572 854.033, 710.925 858.958, 721.979 869.882 C 733.497 881.264, 737.729 890.920, 739.099 908.942 C 740.590 928.547, 744.949 938.962, 756.495 950.502 C 768.582 962.585, 781.880 967.611, 799.494 966.754 C 824.128 965.555, 843.377 950.523, 851.042 926.500 C 853.997 917.238, 854.009 898.737, 851.072 881.770 C 838.424 808.716, 780.634 752.101, 707.495 741.110 C 697.039 739.539, 676.692 739.010, 666.500 740.045 M 1128.347 740.037 C 1110.922 743.143, 1094.820 754.975, 1087.130 770.324 C 1081.420 781.721, 1081 785.175, 1081 820.710 L 1081 853 1049.660 853 C 1021.723 853, 1017.481 853.215, 1010.596 854.975 C 999.905 857.710, 991.659 862.361, 983.959 870 C 964.976 888.834, 961.606 918.569, 975.927 940.886 C 980.633 948.221, 991.339 957.796, 998.667 961.225 C 1010.378 966.705, 1012.702 966.975, 1048.250 966.988 L 1081 967 1081 1024 L 1081 1081 1048.250 1081.012 C 1012.370 1081.025, 1009.872 1081.327, 998.231 1087.058 C 990.797 1090.718, 980.516 1099.962, 975.927 1107.114 C 968.105 1119.304, 965.126 1136.455, 968.411 1150.387 C 973.051 1170.065, 988.180 1186.190, 1008 1192.583 C 1012.699 1194.099, 1018.416 1194.416, 1047.250 1194.760 L 1081 1195.162 1081 1226.444 C 1081 1243.650, 1081.447 1260.151, 1081.994 1263.114 C 1082.540 1266.076, 1084.859 1272.325, 1087.147 1277 C 1094.242 1291.500, 1107.458 1302.377, 1123.008 1306.515 C 1130.403 1308.483, 1146.193 1308.424, 1153.068 1306.404 C 1171.364 1301.027, 1185.650 1287.342, 1192.115 1269 C 1194.294 1262.820, 1194.426 1260.840, 1194.794 1228.750 L 1195.181 1195 1251.499 1195 L 1307.817 1195 1308.243 1228.250 C 1308.607 1256.590, 1308.932 1262.312, 1310.447 1267 C 1316.829 1286.745, 1332.006 1301.641, 1350.703 1306.511 C 1357.261 1308.219, 1372.380 1308.437, 1379 1306.919 C 1398.251 1302.505, 1415.433 1285.366, 1420.482 1265.540 C 1421.685 1260.819, 1422 1252.886, 1422 1227.371 L 1422 1195.162 1455.750 1194.772 C 1487.090 1194.409, 1489.964 1194.227, 1496 1192.217 C 1521.420 1183.754, 1537.260 1160.704, 1535.665 1134.500 C 1534.235 1110.984, 1520.158 1092.296, 1497.432 1083.744 C 1491.781 1081.618, 1489.854 1081.497, 1456.750 1081.197 L 1422 1080.882 1422 1024 L 1422 967.118 1456.750 966.803 C 1489.854 966.503, 1491.781 966.382, 1497.432 964.256 C 1514.320 957.901, 1527.453 944.771, 1532.976 928.723 C 1535.971 920.022, 1536.674 906.455, 1534.589 897.613 C 1530.994 882.365, 1519.457 867.099, 1506.314 860.199 C 1494.063 853.767, 1488.421 853, 1453.340 853 L 1422 853 1422 820.052 C 1422 787.634, 1421.960 786.975, 1419.486 779.144 C 1406.837 739.103, 1356.513 726.255, 1326.229 755.336 C 1318.725 762.542, 1314.056 769.900, 1310.898 779.500 C 1308.719 786.126, 1308.576 788.279, 1308.226 819.750 L 1307.856 853 1251.499 853 L 1195.142 853 1194.812 819.250 C 1194.482 785.508, 1194.481 785.498, 1191.796 778.119 C 1185.417 760.594, 1171.801 747.357, 1154.792 742.146 C 1146.747 739.681, 1135.414 738.778, 1128.347 740.037 M 1195 1024 L 1195 1081 1251.500 1081 L 1308 1081 1308 1024 L 1308 967 1251.500 967 L 1195 967 1195 1024" stroke="none" fill="#7254dd" fill-rule="evenodd"/></svg>